<?xml version="1.0" encoding="utf-8"?>
<!-- Generator: Adobe Illustrator 22.0.1, SVG Export Plug-In . SVG Version: 6.00 Build 0)  -->
<svg version="1.1"
	 id="Layer_1" mapsvg:geoViewBox="103.618748 1.470961 104.084977 1.179887" xmlns:dc="http://purl.org/dc/elements/1.1/" xmlns:mapsvg="http://mapsvg.com" xmlns:rdf="http://www.w3.org/1999/02/22-rdf-syntax-ns#" xmlns:svg="http://www.w3.org/2000/svg"
	 xmlns="http://www.w3.org/2000/svg" xmlns:xlink="http://www.w3.org/1999/xlink" x="0px" y="0px" viewBox="0 0 800.5 496.7"
	 style="enable-background:new 0 0 800.5 496.7;" xml:space="preserve">
<style type="text/css">
	.st0{fill:#FF5555;}
</style>
<path id="SG-01" class="st0" d="M431.6,77.4l1.2,0.4l2,0.5l1.5,1.6l1.9,1.4l1.1,1.6l0.8,1.4l0.1,1.3l1,1.6l2.1,2.1l1.3,1.2l1.5,0.7
	l1.3,1l1.7,0.5l1,0.1l0.3,0.8l1,0.4l1.2,0.1l0.7-1.3l1.5-1.4h-0.3l2-0.3l1.3,0.3l2.3,1.5l1.6,1l1.6,0.6l1.6,0.5l1.9,0.4h2.8l2,0.6
	l1.3,0.1l1.1,0.6l0.9,0.8l1,0.9l1.1,0.7l1.6,1.3l-0.3,0.3l-1.6,2.4l-3.5,5.4l-2.9,2.2l-3.1,1.5l-2.5,1.7l-1.5,1.8l-0.4,4.9l-0.7,1.1
	l-0.7,1.6l-0.4,1.8l-0.2,0.8l-2.4,3.8l-2.5,1l-2.8,1.2v6.2l-1,1.8l-1.6,0.8l-0.1,1.7l-1.7,2.9l-1.9,3.4l-1,3.6l-1,4.2l-1.3,5.1
	l-1.7,4.4l-1.8,3.1l-3.5-0.2l-4.6-0.9l-3.3-0.6l-3.6-0.3l-3.3,1.6l-2.6,4.1l-1.7,4.4l-1.6,6.1l-2.6,4.6l-2.7,4.4l-0.1,5.9l2.1,2.3
	l2,4.3l1,3.9l0.1,3l-1.9,1.9l-5.1,0.3l-3.6,1.4v3.3l3.8,0.1l4.8,0.9l3.4,0.9l0.7,2.9l0.1,4.4l1.7,4.6l2.1,3.9l1.6,0.9l4.2,1.4l3,1.4
	l2.4,3.9l4,3l0.5,4.9l1.6,2.6l-0.4,1.4l-0.4,1.7l-2.3,1l-1.3,0.9l-1.2,2.3l-3.4,3l-0.9,3.4l0.4,1.4l0.9,1.7l0.7,1.6l0.7,2.7
	l-0.5,1.1l0.1,0.8l0.1,1.5l-0.2,1.1l-0.5,1.6l-0.7,1.4l-1.4,1.4l-1.6,1.4l-1,0.6l-0.7,0.5l-0.1,0.6l-0.7,1.6l-1.1,0.6l-1.6,1.9
	l-1.5,1.6l-0.3,2l-0.4,3.3l0.3,3l0.4,2.2l0.8,2.7l-0.1,1.8l-0.1,2.2l-2.1,0.6l-1.5,0l-2.2-0.1l-2.4-0.1l-1.9-0.3l-1.8,0.1l-3.3-0.3
	l-0.9,3.4l-0.5,1.1l-0.3,2.4l-0.2,1.5l0.2,3.4l0.6,0.6l1.2,3.2l1.9,0.2l1.1-2.7l1.6-2.6l1.2-2.4l0.8-1.4l0.3-1.8l1.4-0.1l1.8,0.1
	l1.3,0.5l1.2,0.8l1.9,0.6l3,1.5l3.1,2.2l2.4,2.3l2.2,2.8l1.1,1.7l-0.2,1.9l-15.7,13.4h-1.8l-1.4-0.5l-2.2-0.7l-2.4-1l-0.7-0.6
	l-0.6-0.3l0.1-1l0.6-0.4v0.6l-0.9-0.5l-1.5,0.1l-0.3-0.2l-1.3-0.7l-1.4-0.4l-1.4-0.6l-2.5,1.9l0.2,0.9l0,14.3l-1.1,0.8l0.2,1.2
	l1.8,1.8l-0.5,0.4l-0.8-0.7l-1.4-1.5l-1.6-1.6l-1.5-1.5l-1.8-1.9l-1.9-1.6l-1.1,0.1l-0.6,0.5l-0.6,1.2l-1,0.9l1.4,1.5l1.1,1.3
	l0.9,1.1l0.1,0.9H390l-2.7-3l-1.5-1.1l-1.4-0.9l-0.8-1.2l-1-0.9l-0.9-0.6l-1-1.1l-3.8-0.2H367l-0.7-0.2l-1.8,1l-2.1,1.2l-3.7,2.3
	l-1.7,1.2l-1.5,0.2l-1.8,1.3h-8.1l-0.2-1.4l-0.9-0.1l-0.6-0.5l-1.4-0.1l-0.3,0.6l-0.6-0.1l0-0.6l1.2-0.9l-2.1-1.4l-0.4,1.2l-1.1,1.7
	l-1-0.4l-1.2-1.1l-1-1l0.4-0.7l1.3-1.4l-1.1-0.7l-0.8-0.1l-1.7-0.8l-2.5-2.1l-1.7-3.2l-1-3l0.8-3l2.3-3.2l1.9-1.9l3-2.7l-0.4-3.4
	l-1.5-2.3l-4.6,0.2l-4-0.2l-2.9-1.1l-4.2-0.2l-2.3,1.5l-4.2-1.3l-4.2-3.6l-1.7-3.2l-0.8-5.5l-0.8-4.9l-0.8-3.4l-1.3-3.4l-2.7-1.9
	l-1.5-4l1.3-3l1.9-3.4l0.6-3.4l2.3,1.8l2,1.7l1.5,1.5l1.7-0.2l0.7-3.4l0.5-2l1.2-2.7v-2.7l-0.7-2.7l0.7-2.7l2.4-3.9l2.7-3.9l2.2-2.4
	l1.7-2.2l2.2-0.5l3.2-1.2l2.5-3.2v-3.3l1.3-3.9l-0.5-3.7l1.3-2.4l2.3-1.5l1.8-2.2l-0.5-3.2l-2.6-0.5H330l-3.3-1.9l-4.1-4.1l-4.1-3.4
	l-2.6-2.7l-4.1-2.7l-1-4.1l1.5-4.4l3.1-3.7l3.1-1.7l2.6-3.4l1.3-4.1l5.4-4.4l4.1-2.9l3.3-2.4l2.1-4.6l2.1-5.9l3-4.5l1.5-5.8l0,0
	l-1.7-2.6l-1.8-2.2l-1-3.4l-0.8-4.4l0.5-5.6v-5.8l-1.5-5.9l-2.9-3.9l-2.4-4.4l-1.2-2.2l1.7-2.2l3.9-0.7l4.4-0.5l3.4-2.7l3.4-4.7
	l2.9-5.9l2.4-6.2l1.5-4.9l1.7-5.7l2.9-3.9l3.9-1.7l6.3,0.7l2.9,1.2l3.2,3.5l1.9,3.2l3.2,3.7l4.6,0.5l4.1-2.2l5-0.1l0,0l1.5-0.7
	l2.1-0.9l1.4-0.1l1.6,0l-0.5,1.3l-0.4,1l-0.8,1.4l-1.4,2.1l-1.5,1.3l-2.4,2.2l-2.5,1.3l-1.6,0.6l-2.2,1.4l-3.4,0.8l-3.4,1.3
	l-2.8,0.6l-3.1,0.7l-4.3,0.5l-1.5,1.1l-1.8,0.9l-0.5,2.2l-1.9,1.2l-0.7,1.1l0.8,1.7l0.6,1.3l0.1,1.9l0.2,0.9l0.8,0.5l1.1-0.5
	l1.5-1.7l1.2-1.4l1.5-2.2l0.7-2.6l0.5-1.2h2.4l5.6,0.2l5.7-0.5l3.1-1.3l2-1.7l0.4-0.2l3.2-1.4l3.5-0.7l1.3-1.6l2.3-0.8l0.9-1.1
	l1.1-1.8l0.8-1.3l1.1-1l0.7-0.7l1.1-1.5l1.5-1.4l0.5-1.6l0.2-2.2l0.6-1.7l0.9-1.2l1.2-1.4l1.2-0.6L415,88v-1l1.1-1.8l1.1-3.1l1.8-2
	l1-0.4l1.8-0.6l0.6-0.3h1.3l0.1-0.1l0.8-0.6l1.6-0.3l1.2-0.2l1.8,0.2l1.4-0.5L431.6,77.4L431.6,77.4z M477.8,92l-1.1,1l-0.7,0.1
	l-0.8-0.4l-1.6-0.1l-2.5,0.2l-3.3-0.3l-2.8-0.4l-1.7-0.7l-1.6-1l-1.1-0.7l-1.9-0.4l-1.7-0.5l-0.2-0.7l0.7-1.2l1.5-1.1l1.1-1.5
	l1.5-2.3l1.8-1.9l1.6-2.5l1.6-0.1l1.4,0.9l3.1,1.8l2,1.2l2.1,1.4l2.4,1.6l1.5,1.2l0.8,1.4l-0.2,0.9l-0.5,0.9l-0.3,1.7L477.8,92
	L477.8,92z M455,85.9l-1.6,1.8l-5-0.1l-1.7-1.2l-2.1-1.7l-1.6-1.7l-1-1.2l-0.7-1.2l-1.3-1l-2.1-1.6l-3-2.4l-2-1.2l-1-0.7l0.1-1.8
	l1-1.6l2.4-1.4l2.7-2.2l1.8-1.2l1.4-0.7l4.9-0.3l2.1,1l4.9,2.6l3.9,2.9l4.1,2.8l0.9,0.8l-0.1,1.2l-3.3,4.7l-2.1,2.7L455,85.9
	L455,85.9z"/>
<path id="SG-02" class="st0" d="M532.9,110.5l1.3,1.1l1.3,1l0.5,1.2l0.1,1.4l-0.2,0.8l-0.9,0.3l-1-0.3l-0.5-1l-1-0.8l-1.4-1.4
	l-0.8-0.5l-1.2-0.7l-1.3-0.7h-0.9l-0.7,0.8l-0.4,1l-0.5,0l-0.7-0.4l0.3-1l0.6-0.7l0.1-1l-0.3-1.4l-1.4-1.1l-2.3-1.8l-1.4-0.5l-1-1.1
	l-0.3-1.7l-0.6-1.3l-0.6-0.6l-0.8-1.3l-1.2-0.7l-0.7-0.6l-1.2-0.3l-0.4-1l-0.8-0.8l-1.3-0.7l-1.1-1l-0.4-1l0.1-1l1.1-0.4l0.9,0.1
	l0.9,0.8l1,0.8l1,1.4l0.6,1.5l1,0.5l2.1,0.9l1.1,0.5l1.4,0.7l1,1.1l1.6,1.5l1.5,2l1.3,1.5l1.6,1.5l1.2,1.3l1.7,1.7
	C531.3,109.2,532.9,110.5,532.9,110.5z M506.2,92.5l0.4,2.2l-0.2,1.7L506,98v1.7l0.5,1.3l2.5,1.2l4.2,3.8l5.9,5.7l3.6,2.7l4.9,3.4
	l-1.1,2.7l-5.3,3.2l0.4,2.3l1.3,1.6l2.5-1.8l4.8-2.7l3.2-1.5l3.2-0.4l2.7,1.9l2.5,2.5l2.3,3.6l1.9,4.2l2.3,3.8l2.8,1.1l3.6,1.7
	l3.2,3.1l1.4,1.5l1.8,1.4l1.8,0.1l1.4,1.3l1.3,0.5l0.9,0.8l1.2,0.8l1.5,0.1l1.8,1l1.9-0.1l1.4,0.4l0.6,1.5l-0.3,1.2l1.1,0.6l0.1-0.8
	l0.8-1.6h1h0.9l0.7,1l1.1-0.6l0.8-0.3l1.1,0.6l1.5,0.3h2.4l1.1-0.9l1.7-0.2l1.5-0.4l1.3-0.4l1.3-0.2l1.5,0.5l1.5,1.2l1,0.3l1.6,0.2
	l0.5-1.8v-1.4l0.7-1.6l1.3-0.4l0.5-1l1-0.7l0.5,3l0.9,2.8l2.3,2.8l3,2.6l2.3,1.3l1.1,3.2l-0.8,3.6l-3,1.5l-1.3,1.5l-2.3,3.8
	l-3.6,3.6l-2.1,2.5l-2.6,2.1l-3.4,2.6l-1.5,0.9l0.6,2.8l1.7,1.9l1.1,4l0.4,4.2l-0.4,4.3l-3.4,1.3l-5.5,1.1l-2.8,1.3l-3.2,2.3
	l-3.4,3.2l-3.2,2.5l-3.4,3l-4.2,1.1h-3.1l-2.3-2.1l-2.8-1.9l-3.2,0.2l-6.8,0.6l-5.3,0.6l-4-1l-3.6-0.8l-3.4-0.4l-1,3l1.6,0.5
	l2.5,0.2l0,0.7l0.4,1.6l1.2,0.2l0.4,2.1l1.5,0.1l0.9,0.8l1.4,1.6l0.2,1.6l0.6,0.5l0,1.2l-1.5,1.9l-2.8,0.8h-4.6l-2.8,1.7l-2.8,2.5
	l-2.5,0.8l-2.1,0.4l-2.3,2.5l1.3,2.9l-1.9,1.5l-2.1,3.1l1.9,2.1l1.7,1.2v2.9l-0.4,1.9l-1.5,1.5l-5.5-0.2l-5.1,0.6l-5.7,0.8l-5.3,0.8
	l-3-0.4l-1.7-2.3l-1.1-3.7l1.9-3.1l0.2-3.1l-3.2-2.1l-1.3-3.1l-2.3-3.5l-4.6-4.4l-4-3.3l-3.6-4.4l-4-1.5l-2.7-2.5l-2.1-2.5l0.6-3.3
	l-0.9-4.3l-1.9-2.1l-6.6-0.4l-3.2-1.2l-3-1.2l-3.4-0.8l-2.5-3.3l-1.1-2.3l-0.2-3.9l-2.3-2.9l-3.4-2.5L436,184v-5.4l1.3-4.1l1.8-4.1
	l0.8-1.4l1.8-3.1l1.7-4.2l1.3-5l0.9-4.1l0.9-3.5l1.8-3.3l1.7-2.8l0.1-1.6l1.5-0.8l1.3-1.7l0.1-6.9l2.4-1.2l2.5-1l2.4-3.8l0.6-2.6
	l0.7-1.6l0.7-1.1l0.4-4.9l1.5-1.8l2.5-1.7l3.1-1.5l2.9-2.2l5.2-7.9l0.3-0.3l1.1-1l0.4-1.8l3.1-1.5l4.6-1.4l1-1.1l1.8,0.1l0.2-1.3
	l0.8-0.8l1.4-0.3l-0.4-1.7l1-1l0.8-0.8l0.8-0.8l0.3-1.5l0.9-0.9h1l2.7-0.2l0.8-0.8l0.8-0.8l1.2-0.3l1.3,0.6l0.8,0.7l0.1,1.4
	l-0.6,0.8l-0.7,0.6l-0.1,1.1l1.1,0.1l0.3,0.8l0.3,1.2l0.8,0.9L506.2,92.5L506.2,92.5z"/>
<path id="SG-03" class="st0" d="M411.8,35.7h1l1,1l0.4,1.1l0.7,0.8l0.8,0.8l0.8,0.5l0.4,0.3l1,0.8l0.5,1.4l0.3,1.5l0.6,0.8l0.7,1
	l1,0.8l0.6,0.8l0.3,0.8l0.9,0.6l0.8,1.2l0.1,1.8l0.7,0.9l0.5,0.8l0.2,1.1l-0.8,0.7l-1.3-0.4l-0.5-1l-0.6-0.5l-0.5-1l-0.7-0.8
	l-0.9-1.2l-0.8-0.8l-0.8-0.9l-0.8-1l-0.7-0.5l-0.3-1.2l-0.8-0.9l-0.4-0.9l0.2-1.1l0.4-0.6l-0.4-1l-0.7-0.7l-0.5-0.7l0.2-0.7
	l-0.6-0.5l-0.9-0.6l-0.3-1.2l0.1-0.8C413,36.3,411.8,35.7,411.8,35.7z M411.8,35.7h-0.1l-0.2-0.2L411.8,35.7z M346.1,5.8l-1.2,1.3
	l-0.7,1.4l-0.8,1.7l1.2,1.4l1.2-0.6l1.2-0.8l0.7-1.1l1.2-1.7l0.3-0.2l0.8-0.3l0.9,0.2l0.1,0.9l0.1,0.4l0.3,1.2l0.4,0.8l1.1,0.4v-0.2
	l0,0.1l0,0.3l0,0v0.5l-0.6,0.8l-0.9,1.2l-0.9,1.1l0.8,0.8l1.5-0.1l0.7-1.7l1.2-1.8l1.4-0.6l0.9-0.9l0.9-2.1l1.7-2.5l1.1-1.9l1.6-0.3
	l1.5,0.8l4.3,2.5l2.7,2l-0.3,0.9l-0.7,1l-0.9,1.6l-0.4,1.1l-0.7,0.8l-0.4,1l0.1,0.8l0.6,0.7l1,0.6l1.3-0.5l1-1.3l0.6-1.4l0.8-1.1
	l0.5-1l0.5-1.4h2.5l1.2,0.8l1.7,0.8l1.3,0.8l1.3,1.3l2.3,1.4l1.2,1l1.3,0.6l1.9,1.8l1.9,1.3l2.3,1.7l2,0.8l1.4,0.7l1.8,0.6l1.3,1.3
	l0.6,1.3l1.1,1.3l0.8,1.6l-0.2,2.4l0.2,0.1l0.5,1.1l0.9,1.3l0.9,0.8l0.8,0.9l0.8,1l0.3,0.1l0.6,1.1l0.5,0.9l0.5,1.4l0.4,1.8l1,2.5
	l-0.1,0l0.8,0.7l0.8,0.8l0.4,0.8l0.5,1.1l0.1,0l1.2,1l1.1,1.7l0.5,1.7l0.9,0.9l2,2.3l1.3,2l0.2,2l0.5,1l-0.5,2.4l-0.5,0.7l-1.1,0.8
	l-1.2,1l-1.1,0.4l-0.3,0.5l0.4,0.6l0.3,0.6l0.7,0.2l-0.7,0.8l-1,0.2l-1,0.1l-0.8,1l-0.5,2l-0.6,0.9l-0.7,1.5l-1.3,0.3l-1,0.8v1.7
	l-0.2,1.8l-0.4,2.4l-0.8,1.2l-0.5,1.3l-0.9,0.7l-0.6,0.5l0,0.4l-0.8,1l-0.7,0.8l-0.5,0.7l-0.3,1.6l-0.6,1.4l-0.9,1.7l-1.6,0
	l-1.4,0.1l-2.1,0.8l-1.5,0.7l-5,0.1l-4.1,2.2l-4.6-0.5l-3.2-3.7l-1.9-3.2l-3.2-3.4l-2.9-1.2l-6.3-0.7l-3.9,1.7l-2.9,3.9l-3.2,10.5
	l-2.4,6.1l-2.9,5.8l-3.4,4.6l-3.4,2.7l-4.4,0.5l-3.9,0.7l-1.7,2.2l3.6,6.6l2.9,3.9l1.5,5.8v6.6l-0.5,5.6l0.7,4.4l1,3.4l1.7,2.2
	l1.6,2.6l-1.4,5.8l-2.8,4.5l-1.9,5.8l-2,4.6l-3.2,2.4l-3.9,2.9l-5.1,4.4l-1.2,4.1l-2.4,3.4l-2.9,1.7l-2.9,3.7l-1.5,4.4l1,4.1
	l3.9,2.7l2.4,2.7l3.9,3.4l3.9,4.1l3.2,1.9h2.4l2.4,0.5l0.5,3.2l-1.7,2.2l-2.2,1.5l-1.2,2.4l0.5,3.7l-1.2,3.9v2.9l-2.4,3.2l-3.1,1.2
	l-2.2,0.5l-1.7,2.2l-2.2,2.4l-2.6,3.9l-2.4,3.9l-0.7,2.7l0.2,2.7v2.8l-0.7,2.7l-0.5,2l-0.7,3.4l-1.7,0.2l-1.5-1.5l-2-1.7l-2.3-1.8
	l-1-3.4l-4.8-0.9l-5.2-2.9l-4.4-2.7l-4.2-3l-2.1-2.3H276l-4.4-2.5l-5.4-4.2l-4.2-4.8l-6.3-4l-5-4l-2.1-2.3l-1.9-2.9l-0.6-2.1v-5.9
	l4.3,0.5h4.2l3.2-0.7l3-2.3l2.7-1.9l3.2-0.8l0.6-4.4h4.4l4-0.5l2.1-2.3l-0.6-4.4l-2.3-2.3l-2.7-1.5l-2.9-1.3l-4.2-5.1l-5.5-6.1
	l-4-5.5l-0.8-5.7l-0.6-9.1l-0.6-5.3l-2.3-3.6l-2.9-5.3l-1.3-5.7l-2.5-6.1l-1.7-5.3l-1.9-4.8l-3.6-3.8l-4.2-6.3l-3-6.3l-1.3-8.6
	l-0.9-5.5l2.7-5.5l2.3-3.2l-1-7.6v-6l0.8-8.5l5.5-5.3l4.3-5.1l2.3-3.6l-0.4-6l-1.5-4.7l-0.4-2.9L244,55l1.1-0.2l0.3,0.5l0.1-0.5
	l0.7-0.7l1-0.7l0.7-0.5l0.4-0.8l0.6-1.4l0.6-0.6l0.7-1l0.6-1.7l0.5-0.9l0.6-0.9l1.3-0.5l2.9-0.2l0.1-1l-0.5-0.7l0.1-1.1l0.6-1.3
	l0.7-1l1.7-1l1.1-0.8l0.7-0.8l1.8-0.7l1.6-0.5l0.1-0.2h0.5l0.5-0.4l0.6-0.5l0.8-0.4l1-0.1l1-0.2l0.8-0.6l0.3-0.2l1.8-0.1l2.3-1.4
	l0-0.1l0.2,0l1.1-0.7l2-1.2l3.3-2.3l2.1-2l2.2-1.8l2.5-1.2l1.9-1.5l3.6-2.7l1.4-0.5l1.9-1l3-1.9l2.9-2.3L304,11l1.2-0.8l0.8-0.3
	l0.4-0.6l0.4-0.3l1.6-0.7l1.6-0.6l1.5-0.9l0,0l0,0l0,0l0,0l1.1-1l1.3-1.9l1.6-0.7l2.3-0.1l1.2-0.4l2.6-0.4l1.5-0.5h3.3l2.4-0.3
	l2.4-1.7h3.7l2.9,0.6l2.8,0.4h2.1l2.8-0.2l1.7,0.4l1.6,1l1.7,0.7l0.3,0.7l0.2,0.3l-0.6,0.2l-1.1,0.4l-1.5,0.5L346.1,5.8L346.1,5.8z"
	/>
<path id="SG-04" class="st0" d="M633.5,132.7l2.2-0.2l1.3-0.1l3.2,1.4l2.5,0.7l2.5,0.8l2.7,0.3l1.2,0.8l1.8,0.3l0.1,0.2l2.3,1.1
	l1.5,1.1l2,1.1l2.5,2.4l2.5,2.2l2.5,3.6l1.5,2.6l0.5,2.5l1.1,2.5l0.8,2.3l0.5,6.5l-0.3,3.8l-0.4,2.9l-0.1,0.1V182l2.7,0.2l2.8,1.2
	l2.5,1.6l-2,5.1l-3.3,7.6l-4.5,10.7l-3.7,8.7l-2.7,6.6l-4.3,9.1l-3.8,9.3l-1.4,3.3l-0.3,1.8l-0.6,2.2l1.4,2.1l2.3,0.6l2.1,0.2
	l2.3-0.4l3.4-0.6l2.3-0.2l1.4-0.4l1.6-0.3l1.7-0.7l2.9-0.7l1.6,0.2l1.8,0.6l2.2,0.7l1.7,0.9l1.3,0.8l1.5,1.1l1.4,0.5l2,0.4l1.3,0.8
	l2.2,0.6l1.9,1.4l0,1.2l0.1,2.8l-0.4,1.9l-0.7,0.9l0-0.8h0l-1,1.8l-2.5,0.6l-2.1,0.6l-1.9,0.4l-2.5,0.8l-2.4,1.2l-1.9,1l-1.9,0.5
	l-1.8,0.7l-2.1,0.7l-1.6,0.6l-1.1,0.4l-3.1,0.3l-5.2,0.6l-3.8-0.2l-3.2-1.8l-4-1.9l-6.4-2.3l-6.3,1.4l-3.8,1.3l-1.3-6.4l-0.8-1.4
	l5.7-12.8l-1.2-0.2l-2.3,5.5l-2.1,3.8l-1,3.7l-2.1,0.5l-4.7-0.3l-2.6,0.8l-1,0.5l-1,0.6l-0.6-0.3l-0.2-1.4l-1.2-0.1l-0.8,1.6
	l-1.3-0.4l-4,0.2h-1.4l-0.7,0.5l-1.3-0.5h-0.8l-1.1,0.4l-0.6,0.6h-2.3l-0.7,0.8l-1.3,0.2h-1.1l-1.4,1h-2.8l-0.1,0.2l-1.6-0.2
	l-1.3,0.3l-0.6,0.7h-1l-1.3,0.7l-1,0.7l-1.3,0.2l-0.2,0.7l-1.5-0.1l-2.2,0.6l-1.3,1.1l-2,1.2l-3.3,0.6l-2.3,0.5l-2.2,0.8l-1.5,0.9
	l-2.1,0.2l-1.5,0.5l-1.8,0.5l-2.7,0.6l-1.2,0.6l-1.7,1.3l-1.3,0.7l-3.2,0.3l-3.5,0.7l-2.6-0.6l-1.3,2l-1.6-0.8l-0.1,0l-1.5-0.3
	l-1.5,1l-1.8-0.1l-2.3,0.6l-1.2,1.2l-1.5-0.2l-1.2,0.1l-2-0.4L529,284l-1.4,0.5l-1.6,0.3l-1.3,1.2l-2.4,0.5l-1.2,0.2h-1.6l-1.2,0.4
	l-0.9,0.9l-1-0.1l-1.9-0.2l-0.3,0.7l-1.9,0.4l-1.9,0.2l-1.9,0.6l-1.2,1.4l-1.6,0.3l-1.3,0.6l-0.9,1.2l-2,0.1l-1.8,0.6l-1.4,0.2
	l-2.4,0.1l-1.7,0.3l-2.5,0.4l-3,1.4l-2.5,0.6l-2.9,0.9l-2.3,1.6l-1.6,1.8l-2.4,1.6l-3.4,1.4l-1.6,1.1l-1.6,0.8l-1.5,0.9l-2.2,0.8
	l-1.1-0.8l-0.8,0.1l-1.7,0.8l-2.2,2.2l-1,1.3l-1.2,0.5h-0.8l-1-0.1l-1.4,0.6l-0.4,1.1l-1.5,1.4l-1.3,1.4l-2.3,2.1l-1.9-0.5h-0.6
	l-1.2,0.9l-1.2,1.2l-1.3,1.3l-0.7,1.3l-1.4,0.6l-0.5,1.3l-1.1-0.4l-1.4-1.4l-1-1.7l-1.9-1.3l-1.4-2l-1.1-1.5l-1-1.6l-1.3-2l-1-1.1
	l-0.7-2.4l-1.5-3.4l-1.8-3.2l-0.1-5.1l0.3-1l1.2-0.2l0.9,0.8l3.6,0.2l1.3-0.4l1-0.3l1.5-0.3h3.1l1.3,0.6l2.6,0.3l1-1.1l-0.3-1.3
	l-0.5-0.7l-1.4-0.8l-1.8-0.2l-1.6-1.6l-1.5-1.6l-0.2-4.1l-1.5-1.4l-2.2,0.1l0.7-1.4l0.5-1.6l0.2-1.1l-0.1-1.5l-0.1-0.8l0.5-1.1
	l-0.7-2.7l-0.7-1.6l-1-1.7l-0.4-1.4l1-3.4l2-1.6l1.7-1.4l1.3-2.3l1.4-0.9l2.4-1l0.8-3l-1.7-2.6l-0.6-4.9l-4.2-3l-2.5-3.9l-3.2-1.4
	l-4.5-1.4l-1.7-0.9l-2.3-3.9l-1.8-4.6l-0.1-4.4l-0.7-2.9l-3.7-0.9l-5.1-0.9l-4.1-0.1v-3.7l3.2-1.4l5.1-0.3l1.8-1.9l-0.1-3l-1-3.9
	l-2-4.3l-2.1-2.3l0.1-5.9l2.7-4.4l2.5-4.6l1.5-6.1l1.7-4.4l2.5-4.1l3.2-1.6l3.5,0.3l3.2,0.6l4.5,0.9l3.4,0.2l-0.8,1.4l-1.9,4.2
	l-1.3,4.2v4.5l1.9,3.7l3.4,2.5l2.3,2.9l0.2,3.9l1.1,2.3l2.5,3.3l3.4,0.8l3,1.2l3.2,1.2l6.6,0.4l1.9,2.1l0.9,4.3l-0.6,3.3l2.1,2.5
	l2.7,2.5l4,1.5l3.6,4.4l4,3.3l4.6,4.4l2.3,3.5l1.3,3.1l3.2,2.1l-0.2,3.1l-1.9,3.1l1.1,3.7l1.7,2.3l3,0.4l5.3-0.8l5.7-0.8l5.1-0.6
	l5.5,0.2l1.5-1.5l0.4-1.9v-2.9l-1.7-1.2l-1.9-2.1l2.1-3.1l1.9-1.5l-1.3-2.9l2.3-2.5l2.1-0.4l2.5-0.8l2.8-2.5l2.8-1.7h4.6l2.8-0.8
	l1.5-1.9l0-1.2l-0.6-0.5l-0.2-1.6l-1.4-1.6l-0.9-0.8l-1.5-0.1l-0.4-2.1l-1.2-0.2l-0.4-1.6l0-0.7l-2.5-0.2l-1.6-0.5l1-3l3.4,0.4
	l3.6,0.8l4,1l5.3-0.6l6.8-0.6l3.2-0.2l2.8,1.9l2.3,2.1h3l4.2-1.1l3.4-3l3.2-2.5l3.4-3.2l3.2-2.3l2.8-1.3l5.5-1.1l3.4-1.3l0.4-4.4
	l-0.4-4.2l-1.1-4l-1.7-1.9l-0.6-2.8l1.5-0.9l3.4-2.7l2.7-2.1l2.1-2.5l3.6-3.6l2.3-3.8l1.3-1.5l3-1.5l0.8-3.6l-1.1-3.2l-2.3-1.3
	l-3-2.7l-2.3-2.8l-0.9-2.8l-0.5-3l1.7-1.4l1-1.7l0.6-0.5l0.5-0.3l2.2-2.4l1.8-1.5l0.6-1.9l1.7-0.8l0.8-1.2l1.2-0.4l2-0.6l2.8-0.4
	l1.6,0.4l2.7-0.8l2.2,1h1.4l1.9-0.5l1.3-0.3l1.5-0.2L633.5,132.7L633.5,132.7z M574.6,119.9l-0.5,0.2l-0.6-0.1l-0.8-0.4l-1.9-2
	l-2.1-1.9l-0.1-1.1l-1-1.3l0.7-0.2l1,0.8l1,0.2l0.9,0.4l1,0.4l1,0.4l-0.1,0.8l0.2,0.6l0.5,0.4l0.5,0.7l-0.3,0.5v0.6l0.5,0.6
	L574.6,119.9L574.6,119.9z M565.5,109.7l-0.4,0.4l-0.8-0.3l-0.5-0.8l-1-1.1l-1.3-1.1l0.7-0.4l0.3,0.2l1,0.2l0.7,0.4l0.7,0.7l0.4,1.1
	L565.5,109.7L565.5,109.7z M694,97.9l-1.6,0.2l-1.2-0.4l-1.3-0.8l-1.6-1.3l-1-0.8l-1.1-1.3l-0.7-1.5l-0.4-1.3l-0.5-1.4l0.6-0.8
	l0.6-0.7l0.7-1l0.9-1.2l0.4-1.2l0.6-1.3l0.5-0.8l0.1-0.8l-0.4-0.4l0.2-0.6l0.4-0.4l0.5,0.3l0.2,1.1l0.2,1.1l0.6,0.5l0.5,0.6l0.3,0.8
	l1.5,0.3l1.5,0.2l1.5,0.6l1.3,0.5l0.6,1.4l1,1.1l1.4,1.8l0.7,1.6v1.3l-0.3,1.3l-0.3,1.2l-0.8,0.9l-1.3,0.1l-1.6,0.3l-1.5,0.4
	L694,97.9L694,97.9z M578.6,89.2l0.7,0.5h11.5l1.6-0.6l1.4-0.7l1.2-0.7h7.5l1.2,1h3.5l3.1-0.5l3,0.5l2.3,0.7l2,0.4l1.2,0.4l1.6,0.1
	l1-1.2l1.9,0.3l2,0.3h1.8l1.5-0.6l1-0.4l1,0.1l0.4,1.5l0.3,0.6l1.3-0.2l0.9-0.8l0.6-0.5l2.4-0.3l0.4,1l0.8,0.5l0.8,1l-0.1,1l0.3,1.9
	l0.4,1l-0.1,1.4l0.3,1.4l-0.4,0.9l-0.6,1.6l0.2,2.1l1.1,0.9l0.6,0.6l0.6,0.3l-0.3,0.7l-1.1-0.3l-1.7-0.5l-2.4,0.3l-1.1,0.7l-1.4-0.6
	l-2,0.6l-1.2,0.5l-0.8,0.4h-1.9l-1-0.8l-1.6-0.4l-0.6,0.6l-0.9,0.3l-1.6-0.3l-1.7-0.4l-1.5,0.4l-1.9,0.1l-0.9,0.5l-1.3,0.8l-1.1,0.3
	l-0.3,0.8l-1.1,0.3l-1.6,0.4l-0.6,1.4l-0.2,1.2l-0.8,0.4l-1,0.5l-0.7,0.9l-0.9,0.9l-1.5,0.3l-0.2-1.1l-1.3-0.1l-0.7,0.3l-0.3,0.7
	l-1.5,0.9l-1.9,0.2l-1.8,0.6l-1.7,0.4l-2.3,0.7l-2.2,0.8l-2.6,0.4l-2.2,0.2l-1.1,0.8l-1.7-0.2l-0.8-1.4l-0.7-1.7l-1.4-2.1l-1.4-0.9
	l-0.7-1.8l-1.1-1.7l-1.3-0.8l-1.7-0.4h-2.3l-1.1-1.2l-0.7-1.5l-0.5-1.3l-0.5-2.2l-2.3-2.1l-2.1-0.7l-3.4-0.3l-1.9-1l-2.4-0.7
	l-1.7-0.8l-2.7-2.3l-1.1-1l-1.3-0.7H549l-1.5,1l-1.9,0H544l-1.8-0.9l-0.2-0.7l-1.2-1.6l-0.8-0.9h-1.6l-0.8,0.9l-1,0.1l-0.9-0.6
	l-0.7-0.5l-0.6-0.7l-0.6-0.9l-1.2-0.5l-1.2-1.3l-0.2-1.2l-0.6-1.4l-0.2-1.3l-0.4-0.8l0.1-1.4l1.2-0.3l2.4-0.5l1.5-0.9l0.9-0.8
	l0.6-1.5l3.4-0.3l0.7-0.7l0.4-1.3l0.7-0.7h1l2.3,0.6l1.6,1.2l2.1,0.6l2.8,1.4l3.5,1.3l3.5,1l3.7,0.7l2,1l1.2,0.9l2.1,0.7l0.4,0.8
	v1.2l1.5,1.7l2.3,1l1.5,0.4l3.8,0.5L578.6,89.2L578.6,89.2z M771.5,72.4l3.5,1.3l2,1.7l1.8,1.2l1.7,1.2l2.1,1.6l2,2.3l1.6,0.8
	l1.9,0.7l1.4,1.2l1.3,1.3l1.5,0.8l1.1,0.4l1.1,1.4l0.1,2l1.3,1.6l1.4,1.6l0.5,1.3l1.7,2.4l0.6,1.8l0.1,3.9l-0.8,2.1l-0.9,1.5
	l-0.1,1.9l-1.1,1.7l-0.4,1.4l-0.4,2.7l-0.5,1.1l-0.6,1.5l-0.3,2.2l-0.2,2.8l-0.8,0.9l-0.4,2.5l-0.9,2.6l-0.7,2l-1.1,1.3l-0.6,0.9
	l-2.9,1l-2,0.9l-1.7,0.6l-1-0.6l-2.3-1l-2.1-1l-1.5-0.7l-1.6,0.4l-1.6,0.9l-2.7,0.8l-3.6,1.7l-2.9,1.6l-3,1.8l-2.8,1.3l-0.9,0.5
	l-3.1,0.8l-2.1,1.1l-0.4,1.6l-1.1,0.8l-0.8,0.6l-0.9,0.7l-1.6,1.8l-1.7,1.4l-1.2,0.2l-1.4,0.9l-1.4,0.5l-1.2-0.9l-0.4-1.3l-1-0.8
	l-1-0.3l-0.6-1.6l-1.2-0.5l-0.5-0.8l-0.6-1.4l-1.3-1.6l-1.1-0.9l-0.2-2.2L732,138v-1.5l-1.9-1.1l-1.9-2.1l-2-2.5l-1.2-1.7l-1.2-1.7
	l-1.1-0.7H721l-0.9-1.4l0.2-1l0.1-1.9l-0.9-1.9l-0.8-1.3l-0.7-1.1l-0.8-1.3l-1.8-1.8l-1.5-1l-2.1-0.6l-0.9-2.1l-2.4-0.6l-1.8-0.6
	l-0.5-1.2l-0.7-1.7l-0.8-0.6l-0.7-0.6l1.6-1.1l0.3-0.9l0.5-1.4l0.8-2l1.1-1.8l0.7-1.3l0.8-3.3l-0.7-2.4l-0.8-0.9l-1-1.8l-0.8-2
	l-0.5-2.5l-0.4-2.1l-0.3-2.4l-0.6-3.3l1.1-1.2l1.1-0.2l1.4,1l1.1,0.3l1.4,0.6l1.4,0.5h1.4h1.8l1.4,0.4l1.4-0.2l1.5-0.4l1.1-0.3
	l1.4-0.6l1.1-1.3l1.9-1.8l1.2-0.7l0.7-1v-1.6l1-0.9l0.8-0.7l0.5-0.9l0.4-1.2l0.9-0.2l0.9,0.4l0.6,0.9l1,1.2l1.2,0.9l2.8,0.2l1-0.7
	l1.3,0.3l1.3,1.3l1.1,0.2l1.8,0.3l1,1.3l1.2,0.2l1-0.7l1-1.8l0.8-0.8l1.9-1l0.4-1.9l1.8-0.8l2.2,0.3l1.2,0.2l1.1,0.9l1.8,0.6
	l2.4,0.5l1.9,0.7l2.7,0.6l1.9,1L771.5,72.4L771.5,72.4z"/>
<path id="SG-05" class="st0" d="M186,485v0.8l-0.8-0.1l-1.2,0.2l-0.1,0.6l0.1,0.7l1.1,0.3l1.4,0.6l0.7,1.2l-0.5,0.9l-0.5,0.9
	l-1.3,0.1l-1.9,0.3l-1.1,0.4l-1.6,0.2l-2.2,0.8l-0.5,0.3l-1.1,1l-1.4,1.1l-1.4,1.4h-0.8l-0.4-1.1l-0.4-1l0.1-2.4v-2l-0.6-0.7
	l0.4-0.9l0.8-0.6l1,0.1l1.8-0.3l1.9-0.3l1-0.6l0.8-0.9l0.7-0.9l0.7-1l-0.2-0.7l-0.3-0.6v-1l0.3-1.2l1.1-0.1l1,0.3l1.4,0.4l0.9,0.7
	l0.5,0.7l-0.5,0.4l-0.1,0.7l0.7,0.6L186,485L186,485z M196.4,456.5l-0.6,0.7l-0.7-0.2l-0.2-0.6l-0.3-0.6l-0.7-0.3v-0.8h0.8l0.6,0.1
	l0.4,0.8L196.4,456.5L196.4,456.5z M275,450.7l-1,0.1l-0.1-0.5l-0.7-0.4l-0.8-0.1l-0.3-0.5l0.1-0.5l1,0.1l1,0.3l1.4,0.4l-0.1,0.5
	l-0.3,0.4L275,450.7L275,450.7z M313.2,460.8l-0.2,0.5l-1.3-0.3l-2-0.4l-1.2-0.8l-0.8-0.6l-2.3-1.1l-2.4-1.3l-1.7-1.4l-0.7-1.2
	l-1-1.8l-0.7-1l-0.4-1.2l-0.5-1.1v-2.2l0.1-1.4l0.8-0.8l0.8,0.6l0.6,0.7l0.8,1.1l0.8,0.7l1.3,1.1l1.5,0.9l1.8,1.5l0.4,1.4l1.4,1.5
	l0.6,0.9l1.7,1.4l1.1,1.6l0.5,1.2l0.8,0.7L313.2,460.8L313.2,460.8z M243.9,447.7l0.6,1.1l1.1-0.1l0.7-0.2l0.6,0.1l0.4,0.8l0.6,0.5
	l0.7,0.9l0.7,1l0.2,1.1l-0.1,1.4l-0.6,0.3l-0.6,0.5l-0.6,0.9l-0.8,1.1l-0.3,1.7l-0.4,0.5l-0.4,0.1l-0.2-0.7l-1.4-0.1l-0.5,0.5
	l-0.7,1l-0.7,0.4l-0.6-0.8l-0.2-0.9l-0.5-1.6l-0.6-2.1l-0.7-1.7l-0.1-1.7l0.5-1.3l0.1-1.5l0.4-1.3l0.6-1.6l0.7-0.9l0.6-0.7l0.1-0.6
	l0.3-0.9l0.4-1l1.8-0.1l0.2,0.5l-0.3,0.4l-1,0.2l-0.4,0.2l-0.3,0.6l-0.3,0.9l0.3,0.5l0.1,1.1l0.2,1L243.9,447.7L243.9,447.7z
	 M182.5,447.7l1.4,0.5l1-0.6l1.1-0.9l1.1-0.6l0.8-0.6l0.7-0.2l0.6,0.6l0.8,0.9v0.5l-0.6,0.5h-0.9l-1,0.3l-0.7,1.3l-0.2,1.4l0.6,1
	l1.1,0.9l1.8,0.2l1.1,0.3l0.8,0.7l1.1,1l-0.5,0.7l-1.8,0.2l-0.3,1.4l-0.7,1.9l-1.7,0.2l-1.7,0.3l-1.3-0.2l-1.3-0.5l-1.5-0.3
	l-2.6,0.1h-5.1l-0.8,0.3l-1.9,0.7l-1.8-0.2l-2.9-0.8l-3.4-0.5l-2.7-0.3l-1.8-0.6l-2.7-0.2l-2.3-0.3l-1.2-0.6l-0.2-1.2l0.8-1.1
	l0.8-0.9l1.9-0.2l1.1-0.4l1-0.7l1.4-1.1l1.1-1.2l1-1.4l1.1-1.1l2-1.3l1.6-1l1.5-0.7l3.7-0.5l1.4-0.3l1.4-0.5l1.8-0.8l1.4-0.2
	l1.6,0.3l0.5,1.1l0.1,0.6l0.3,1.4l1.2,1.4L182.5,447.7L182.5,447.7z M372.1,438.9l-0.4,0.1l-0.6-0.3v-0.5l0.4-0.2l0.2-0.2l0.4-0.3
	l0.2-0.5l0.4-0.6l0.3-0.6l0.6-0.2l0.1,0.6l0.4,0.3l-0.2,0.5l-0.2,0.1l-0.3,0.5l-0.4,0.4l-0.4,0.4L372.1,438.9L372.1,438.9z
	 M368.2,434.9l-0.6,0.1l-0.2-0.6l0.1-0.5l0.4-0.5l0.8,0.1l0.3,0.6l-0.3,0.5L368.2,434.9z M393.5,424l0.8,0.6l0.9-0.1l1,1l0.8,0.5
	l1,0.2l0.9,0.6l0.1,0.6l-0.4,1.2l0.3,2.2l0.4,1.4l0.2,2l0.1,1.7l-0.6,0.5l-0.5-0.3l-0.8-0.7l-0.5-0.6l-0.4-0.6l-0.5-0.7l0.2-0.8
	l-0.2-0.9l-0.8-0.3l-0.9-0.8l-1.6-1.3l-0.9-1.2l-1.4-1.2l-1.1-1.3l-1.1-0.7l-0.9-0.6l-0.1-1.1l0.6-0.7l0.5-0.7l1.2-0.3l0.5,0.5
	l0.5,1l1.2,0.4L393.5,424L393.5,424z M410.1,427.6l-0.6,0.4l-0.9-0.5l-0.6-0.6l-1-0.5l-1.1-1.1l-0.9-1.1l-0.8-0.9l-0.7-0.9l-0.1-1.7
	l-0.1-1l-0.7-0.9l0.2-1.2l0.6-0.3l1,0.1l0.2,0.6l0.9,0.5l0.8,0.8l1.2,1.1l1,1.1l0.6,0.9l1.1,0.4l0.9,0.7l0.5,0.7l-0.2,1.1l-0.5,0.6
	l-0.5,1.1L410.1,427.6L410.1,427.6z M230.4,422.1l-1.2,0.5l-2.2-0.1l-1.6,0.2L224,423l-1.4-1l-0.6-0.6l-1-0.9l-0.3-1.4l0.2-1.1
	l0.1-1.4l-0.3-0.9l0.6-1l1.3-0.1l1.6,0.6l2.1,0.8l1.6,0.7l1.3,0.9l1.8,1.2l1.2,1.2l0.4,0.9l-0.8,1L230.4,422.1z M402.3,410.5
	l-0.6,0.9l-0.8,0.5l-1,0.1l-0.9-0.5l-0.8-0.4l0.3-0.5l0.9-0.1l0.5,0.2l0.7,0.1l0.5-0.1l0.5-0.9l0.6-0.8l0.4-0.9l0.6,0.2v0.5v0.6
	l-0.5,0.4L402.3,410.5L402.3,410.5z M409,410.5l-1.1,0.1l-0.4-0.3l0.1-0.5l0.6-0.3l0.5-0.3l0.5-0.3l0.2-1.1l0.3-0.6l0.7-0.2l0.4,0.8
	l-0.2,0.9l-0.5,0.6l-0.6,0.6L409,410.5L409,410.5z M381,411.7l-0.5,0.1l-0.6-0.6l-0.6-0.6l-0.6-0.8l-0.6-0.6l-0.5-0.8l-0.7-1.1
	l-0.3-1.2l0.9,0.7l0.4,0.5l0.6,0.5l0.7,0.6l1,0.9l0.6,0.8l0.5,0.8L381,411.7L381,411.7z M239,412.5l-1.1,0.2l-0.9-1v-1l-0.7-0.8
	l-1-1l-0.6-0.7l-1.2-0.9l-0.3-1.3l0.2-1.7l1-2l1-1.6l2.3-0.7l0.8,0.5l0.5,0.4l0.5,1.5l0.6,1.6l0.4,1.2l0.6,1.5l-0.1,1.5l-0.7,1.4
	l-0.7,1.5L239,412.5L239,412.5z M216.5,408l-2,0.7l-1.7-0.3l-1.6-0.6l-0.8-0.4l-0.9-0.9l0.1-0.9l-0.5-1.2l0.9-1.2l1.6-0.6l1.1-1
	l1.9-0.9l1.9-1l1.1-0.5l1.5-0.5h2.2l1.8,0.4l1.5,0.9l0.8,1.4l0.7,1l-0.3,1.1l-0.7,0.8L224,405l-2.1,0.9l-2.9,1.5L216.5,408
	L216.5,408z M260.7,403.4l0.6,1l1.3-0.2l0.6-0.2l0.4,0.6l0.3,0.5l1.6,0.9l0.4,1l1,0.9l2,1.7l1.7,1.5l1.2,1.4l0.8,1.1l-0.5,0.5
	l-0.1,0.8l1.2,1.2l0.6,0.8l0.8,1.3l0.2,1.1l-1,0.6l-1.6-0.1l-2.1-0.1l-0.4-1.1l-1,0.2l-0.7,0.6l-1.3-0.1l-0.8-1l-0.3-1.2l-0.3-1.8
	l-0.6-1l-0.6-0.8l-2.6-1.8l-0.9-0.7l-0.9-0.4l-1.5-0.4l-1-0.5H256l-0.5,0.9l0.2,0.8l0.8,0.2l1.1,0.7l1.1,0.6l1,0.8l0.9,0.7l-0.2,0.7
	l-0.8,0.3l-0.4,0.8l-1.4,0.3l-0.6,1l-0.8,0.8l-2.1,0.1l-1.9,0.3l-3.1-0.3l-2-0.5l-1.5-0.4l-1.8-0.2l-1.2-0.5l-0.8-1l-0.1-1.4
	l0.6-1.3l0.5-0.9l1-1l0.6-0.6l0.2-0.7l1-0.1l1.1,0.7l1.9,0.8l1.7,0.1l1.4-0.4l0.6-1.6l-1-0.7h-2.3l-1.6-1l-1.9-1.2l-0.6-1.4
	l-0.4-1.9l-0.8-1.9l-0.5-1.1l-0.2-1.4l-0.2-2V396l1-0.8l0.5-0.9l1.5-0.4l1.1,0.2l2.2,0.4l1.2,0.4l1.8,0.6l0.7,0.8l0.7,1.1l0.9,0.7
	l1.1,1.1l1.4,0.6l1.4,0.8l1,1l0.7,0.9L260.7,403.4L260.7,403.4z M333.3,361.6l2.1,0.5l2.4-0.2l1.3,0.5l1.3,0.2l0.9-0.2l0.9-0.5
	l0.8-0.5l0.5-0.9l0.7-0.4l0.1,0.9l0.9,1.2l2,0.6l2.3,1.6l3.6,1.3l2,1.9l1.9,0.6l2,0.9l2.4,0.3l2.4-0.1l2.2,0.3h1.6l1.6,0.3l0.9,0.4
	l1,0.7l1.7,0.8l1.9,0.2l1.1-0.6l1.3-0.9l1.9,0.1h1.2l1.5,0.3l1.5,0.2l0.6,0.7l0.2,1.6l-0.5,1.1l1,0.6l1.2-0.2l0.4-0.9l0.7-0.2
	l1.3-0.9l1-0.4l1.3-0.5l2.2-0.3l1.3,0.5l1,0.6v1.1l-0.5,0.9l-0.4,1.3l-1.2,1.5l-1.2,1.3l-0.9,1.5l-1.2,1.5l-0.6,1.3l-1.5,2l-0.8,0.5
	l-0.8,0.5l-0.3,1.2l-0.5-0.2v-0.9l-0.1-1l-0.2-0.7l-0.9-0.8l-0.7-0.6l-0.6-0.4l-0.8-0.5h-0.5l-0.3,1.1l0,1v1.5v1.1l-0.4,1.1
	l-0.2,1.2l0.9,1.2l0.8,0.7v0.5l-0.7,0.2l-0.5,0.7l-1.1,0.9l-0.6,0.4l-1.3,0.6l-0.8,0.5l-0.5,0.5l-0.7-0.5l-0.8-0.2l-0.8,0.5
	l-1.5,0.3l-1.2,0.4l-1,0.2l-0.9,0.6l-0.5,0.9l-1.4,0.2l-1.5-0.5l-0.7-0.5l-0.9-0.8l-0.3-1.5l-0.5-1.7l-1.1-0.7l-1.1-0.6l-0.1-0.9
	l-0.8-0.4l-1.6-0.9l-1.3-1.2l-0.9-1.3l-1.3-1.1l-0.9-1.4l-0.8-1.7l-0.8-1.2l-1-0.8l0.1,0.5l-1.4-0.6l-0.6-0.2l-0.5-1.2l-0.5-0.6
	l-1-0.7l-2.3-0.1l-0.4,0.3l-0.3,0.5l-1.2-0.2l-0.7-0.5l-1-0.7l-0.9-1l-0.9-1l-1.2-1.6l-1.2-0.6l-1.4-1l-1.2-0.6l-0.2-1.1l-1-0.6
	l-1.5-1.1l-1.1-1.3l-1.3-0.7l-1.8-0.4l-0.6-0.9l-0.5-1.2l-0.4-0.9l-0.8-1.3l-0.5-0.6l0.2-0.8l1-0.2l1-0.2l1.9,0.3l2.1,0.6
	L333.3,361.6L333.3,361.6z M382.6,363l0.2,0.9l-0.5,0.3l-0.6,0.5h-2.1l-0.9,1l-0.8,0.5l-0.8,0.6l-1.4,0.5l-0.9,0.6l-0.7,0.6
	l-0.5,0.2l-0.9-0.5l-0.7-0.1l-1-0.5l-1.5-0.2l-1-0.8h-1.2l-0.3-0.5l0.2-0.4l0.2-0.5l-0.5-0.7l-1.2-0.5l-0.9-0.2l-0.9,0.9l-0.6,0.5
	l-1.2,0.2l-0.6-0.5l-0.9-0.5l-1.3-0.5l-1.1-0.2l-1.1-0.3l-0.9-0.7l-0.8-1l-0.8-0.9l0.9-1.8l1.6-0.7l1.4-0.9l2-0.9l2-0.9l2-0.4l2-0.5
	h2.8h1.3l2.2-0.3l1.5,0.5l1.4,1l1.2,1.3l1.4,1.3l0.6,0.6l1.1,1.1l1.1,1.4L382.6,363L382.6,363z M333.7,354.7l-0.7,0.4l-1.2-0.1
	l-1.3,0l0-0.6l0.6-0.3l0.4-0.5l0.4-0.2l0.7,0.1l0.3,0.3l0.5,0.5L333.7,354.7L333.7,354.7z M184.8,311.9l0.7,2.8l0.2,5.1l0.8,0.6
	l1.1,1.5l1.8,1.9l2.3,2.7l2,0.9l1.5,0.6l5.9,0.4l3,0.3l2.5,1.4l2.5,1.6l1.4,2.7l0.2,2.8l-0.5,1.1l-2.3,1.9l-2.7,2.3l-2.5,1.8
	l-1.5,0.8l-2.9,0.3l-2.3-0.6l-1.3-1l-2.3-1.2l-3.7-1.8l-2.5-0.7l-2.4-0.3l-1.5,0.2L181,341l-1.7,1.1l-1.9,1.5l-1.6,1.6l-0.3,1.7
	l1.4,1.5l2.2,0.4l1.2-0.1h1.5l0.6-0.2l0.9-0.2l-0.2,1.2l-0.5,0.8l0.9,0.5l0.1,1.2l-0.5,0.6l-0.7,1.2l-1.8,1.7l-1.7,1.3l-0.5,1.1
	l-2.5,0.3l-2.1-1.3l-1.7-1.6l-1.7-0.1l-0.7-1.1l-1.6-1.2l-4.8-2.6l-3.5-1.5l-0.1-3.8l-0.8-1l-1.1,0.5l-1,0.4l-0.6,1.4l-1-0.1
	l-1.5-0.4l-1.3-0.2l-0.7,0.5l-1.1,1.1l-0.8,1.6l-0.2,1.5l0.7,0.4l2.2,1l3.2,1.9l3,2.1l3.8,1.9l2.3,1.4l1.6,1.1l0.4,0.9l-0.8,0.8
	l-1.2,0.3l-2.3,1.1l-1.8,0.8l-1.6,1l-2.1,0l-2.2,1.3l-3.6,3l-4,2.9l-5.5,3.1l-3.2,2.4l-1.5,0.1l-0.5-2l-1.8-3.9l-1.8-4.7l-1.5-3.3
	l-0.8-2.4l-1.8-3.9h-1.4l-1.1,0.5l-2.1,1.5l-1.8,1.2l-1.8,1.3l0.3,1.3l1,3.3l1.6,4.2l2,6.1l1.7,4.8l-0.1,1.7l-0.9,0.9l-2.1,1.4
	l-2.3,1.6l-1.5,0.5l-0.1-1.5l-2.4-5.7l-2.9-7.6l-2.1-5.5l-1-0.5l-0.7,0.5l-3,2.2l-2.3,1.8l-1,1.2l0.1,2.6l3.9,10l2.1,7.1l-0.1,1.6
	l-0.7,0.6l-3.6,1.5l-4.2,1.9l-3.9,0.8l-3.5,0.4l-3.6-1.4l-2.9-1.8l-2.4-2.7l-2.5-3.2l-0.9-1.5l-0.6-1l-2.6-3.9l-3.1-5.3l-2.4-4.4
	l-2.1-4.6l-1.6-3.8l-0.7-2.5l-0.5-1.2l-1.3-3.2l-1-3.6l-0.7-2.9l-0.4-2.1l1-1.5l1.1-2.1l2.5-2.1l2.6-2.3l3.1-2.4l4-3.4l2.9-2.8
	l2.3-2.7l2.7-1.9l2.5-1.9l4.2-2.5l4.7-3.8l2.5-1.9l2.9-1.8l2.3-1.8l2.3-1.4l2.5-1.7l2.1-1.7l3.1-0.9l2.8-0.4l1-0.6l1.2,0.2l0.7,0.6
	l3.1,0.1l1.1-0.8l0.4-1.7l1.3-1l2.3-0.3h2.1l0.9,0.6l-0.3,2.1l-1.4,0.9l-0.9,0.6l-1.8,1.6l-2.7,2.1l-1.3,1.2l-1.1,2l-0.4,2.1
	l-0.5,0.7l-1.5,1.7l-1.6,2.4l-2.5,2.7l-2.4,2.2l-1.9,1.7l0.1,1.8l0.5,0.6l1.4,1.5l2.1,1.7l1.8,1.1l0.5-0.9l1.4-0.9l1.8-1.1l1.3-1
	l1.1-1.2l0.7-0.6l0.6,0.3l0.5,0.7l1.3,0.6l0.8-0.6l0.9-0.8h1.7l1.2-0.2l0.5-1.5l-1-1.2l-0.2-1.4l0.2-1.5l0.9-1.8l1.4-1.8l2-2
	l1.6-1.2l1-1l1.3-0.3l0.8,0.3l0.7,0.7l1.3-0.2l1.1-1.1l0.4-1l-0.1-1l-0.6-0.8l-0.1-1.3l0.4-0.5l0.5,0.6l0.5,0.5l0.9,0.5h1.4l0.9-1.4
	l1-1.2l-0.6-1.3l-1.2-1l-0.9-0.4v-1.2l0.3-0.7l1.5-0.9l1.9-1.2l1.9-1l1.5-0.2l2-0.1l2.4-1.1l2.1-0.4l2.8-0.6l3.8-0.6l3.2,0.4
	l2.6,0.6l2.1,0.9l2.6,1l2,1.9l1.6,1.3l1.6,1.5l0.9,1L184.8,311.9L184.8,311.9z M136.8,291.7h-2.2l-1.2-0.7l-0.4-1v-1.5l-0.2-1.9
	l-0.4-1.2l-0.4-1.5l-0.4-1l-0.1-1.1l0.2-1l1-0.1l1,0.2l0.7,0.8l0.7,1l1.8,1.9l0.7,1.1l0.4,0.8l-0.1,1l-0.1,0.9l-0.1,2.7L136.8,291.7
	L136.8,291.7z M177.1,40.1l1.5,0.8l1.7-0.5l3.1-0.5l1.7-1.4l2.3-0.9l1.5,0.2l1.3,0l0.6,1.6l0,1.1l1,0.6l1.6,0.6l0.8,0.9l0.2,1.2
	l0.6,1.4l1.2,1l1.7,0.5l1.6,0.5l1.2,1.2l1.1,0.6l-0.1,1.3l-1.4,1.1l-0.2,2.1l1.4,1.3l2.4,0.1l1.6-0.1l7.7-0.4l1.8-1.1l0.4-0.1
	l1.7,0.7l2.4,0.8l2.5,1.6l1.3,1.7l1.3,0.2l0.9-0.1l2.4-0.2L229,58l0.9-1l0.9-0.7l1.2-0.1l2.1-0.5l0.8,0.1l0.8,0.3l0.8-0.1l0.8,0.1
	l0.7,0l0.6-0.2l1.2-0.3h3.2l0.4,0.2l0.4,2.9l1.5,4.8l0.4,6.1l-2.3,3.6l-4.4,5.1l-5.5,5.3l-0.8,8.6v4.9l0.1,7.6l-2.3,3.2l-2.7,5.5
	l0.9,5.5l1.3,8.6l3,6.3l4.2,6.3l3.6,3.8l1.9,4.8l1.7,5.3l2.5,6.1l1.3,5.7l2.9,5.3l2.3,3.6l0.6,5.3l0.6,9.1l0.8,5.7l4,5.5l5.5,6.1
	l4.2,5.1l2.9,1.3l2.7,1.5l2.3,2.3l0.6,4.4l-2.1,2.3l-4,0.5h-4.4l-0.6,4.4l-3.2,0.8l-2.7,1.9l-3,2.3l-3.2,0.6h-4.2l-3.4-0.4v5.7
	l0.6,2.1l1.9,2.9l2.1,2.3l5,4l6.3,4l4.2,4.8l5.3,4.2l4.4,2.5h5.7l2.1,2.3l4.2,3.1l4.4,2.7l5.2,2.9l4.8,0.9l1,3.4l-0.6,3.4l-1.9,3.4
	l-1.3,3.1l1.5,4l2.7,1.9l1.3,3.4l0.8,3.4l0.8,5l0.8,5.5l1.7,3.2l4.2,3.6l4.2,1.3l2.3-1.5l4.2,0.2l2.9,1.1l4,0.2l4.6-0.2l1.5,2.3
	l0.4,3.4l-3.1,2.7l-1.9,1.9l-2.3,3.2l-0.8,3.1l1,3.1l1.7,3.2l2.5,2.1l1.2,0.6l-1.3,2.2l-2.7-0.1l-1.2,0.6l-0.5,0.9l-0.9,0.8
	l-1.5-0.1l-1.4-0.2l-1.2-1.2l-1.6-1.2l-4.5-4.4l-1.5-0.1l0.2,1.7l4.6,4.5l0.1,1.8l-0.6,0.5l-0.8,0.5l-1.5-0.1l-0.9-0.5l-1.1-1.2
	l-1-1.2l-0.8-0.4l-0.4-1.5l-1.2-1.2l-1.4-1l-0.4-1.1l-1-0.7l-1.4-0.2l-0.8-0.7l-0.3-0.9l-0.5-1.2l-0.7-0.8l-1.4-0.7h-2.3l-0.8-0.6
	l-0.4-0.5l-1.3-0.1l-0.4,0.7l-0.5,0.6l-0.4,1h-1.1l-0.8-1.1l-1.8-0.9l-2.1-1.2l-1.2-0.4l-1.5-1.3l-3.2-1.8l-2.7-1.4l-3.8-2.2
	l-3.7-2.3l-2.7-1.4l-0.7-0.3l-0.2,0.4l-2.6,4.3l-2.7,4.6l-3.4,5.2l-2.2,4.2l-3.1,5.4l-1,0l-7.2-4.6l-6.7-4.5l-10.8-6.9l-8-5.1
	l-2.1-1.6l-1.3-1.1l-2.6-1l-1.8-1.1l-1-0.7l0.4-1l1.5-2.1l5.4-8.9l0.8-1.1l2.3-0.4l2,0.3l2,1l6.7,5l0,0.9l-0.5,0.1l0.2,1.8l0.8,0.7
	l1.1,0.6l1.7,1l2.5,0.1l0.8-0.3l0.9-0.8l0.6-1.1l0.9-0.3l1,0.4v3.4l2.1,1.5l1,0.6l1.7-0.1l0.6-0.7l1.1,0.1l1.1,0.7l0.9,0.3l1.8-0.1
	l1.1-2.5l1.1-2.3l0.7-1.1l0.2-1.2l-10.9-6.8l-7.4-4.8l1.9-3.5l0.4-2.7l0.3-1.8l-0.4-0.4l-1.2-0.7l-1-0.3l-1.2-1.2l-1.1-1.8l-2.4-3
	l-1.9-1.4l-0.2-2.4l-1.3-1.8l-1.3-2.5l-0.5-2.7l-1.2-2.4l-1-0.7l-1.2-1.3l-1.5-1.4l-1.8-1.1l-1.6-0.6l-2.7-0.3h-2.7l-2,0.2l-2.4-0.1
	l-1.9,0.5l0.2,0.9l0.5,0.7l2.3,0.6l1.4-0.4l3.9,0.3l2,0.8l1.9,0.4l0.4,1.1l2.4,1.6l0.5,1.2l-0.6,1l0.1,1.4l1,0.5l-0.2,0.5l-0.2,1.2
	l1.8,0.8l0.8,2l0.7,2.3l1.3,2.1l0.2,1.9l-4.1,0.1l-3.5,0.5h-4l-4.8-1.3l-5.2-1.5l-4.5-0.8l-5.6-1.2l-4.3-1.2l-4.1-1.4l-2.4-0.9
	l-2.9-0.1l-0.5,0.5H188l-0.7,1.1l-0.3,0.5v-1.7l0.5-6.3l0.6-6.5l0.4-2.7l0.6-4l1.2-2.4l3.1-2.9l2.4-3.3l0.5-1.7l-0.9-0.6l-1.3-0.1
	l-1.8,0.1L191,258l-0.7,1.7l-1.7,3.3l-3.2,2.8l-0.7,1l-0.6,2.6l-0.6,4.3l-0.5,2l-0.1,2.6l-0.1,1l0.1,1l0,3.9l-0.3,1.5l-0.5,1.3
	l-0.2,0.7l-2.3-1.3l-3.2-2.1l-3.5-3l-3.4-2.6l-2.2-1.6l-2.5-0.2l-1.9-0.3l-1.9-0.1l-2.3,0.1l-1,1.4l-1.2,0.5l-2.2,0.2l-0.6,1.1
	l-0.2,1.9l-0.6,1.6l-0.2,3l0,0.4l0,0.2l-1,0.9H145l-0.2-2.7l-1.1-1.2l-2.3-0.4l-1.7-1.2l-1.9-1.6l-1-1.5l-1-0.8l-3.1-0.5l-1.2,0.7
	l-1.5,0.4l-1.2,1.4l-0.5,1.8l-0.5,1.6l0.1,1.3l0.2,1.4l0.8,0.9l-0.1,3.1l-2.1,0.2l-1.5,0.4l-3.2,0.7l-2.3,0l-2.4,0.7l-4.3-0.1
	l-0.5-4.9l-0.9-4l-0.2-3.5l-0.4-2.4l-0.9-0.9l-0.5-0.7l-1-1l-1.3,0.4l-0.5,1.3l-0.8,1v1.8l0.5,2.5l0.2,4.8l0.6,8l-1.2,0.8l-1.5,0.3
	l-0.8,0.5l-1.6-0.3l-7.5-8.5l-0.5-4.3l-0.8-3.4l-2.9-0.1l-3.6,0.8l-0.8,1l0.3,4.4l0.7,5.5l6.9,7.7v1.1l-2.6,2.3l-1.9,1.9l-3.9,3
	l-3,3l-2.1-2.6l-1.4-1.8l-1.1-0.2l-1.8,1.4l-3.5,3l-0.7-1.8l-3-3.6l-1.1-0.7l-2.1-2.3l-1.4-2l-1.1-1.2l-0.3-1.3l1.2-1l0.8-1l0.1-1
	l-0.4-1.1l-1.6-1.8l-1.3-1.9h-1.6l-0.8,0.8l-1.2,0.8l-0.8-0.1l-1.8-1.2l-0.6-1.1l1.2-0.5L60,284l3.3-4.2l2.5-2.3l1.1-1.1l1-1.3
	l0.3-2.3l-1.2-1l-1.2-0.3l-1.2,0.2l-1.1,0.4l-1.6,1.5l-1.7,1.7l-1.7,2.4l-1.4,1l-1.2,1.5l-0.7,0.8l-0.7,0.6h-2l-1.2-1.1l-1.2-1.4
	l-1.3-1.1l-0.2-1.3l0.8-1.7l0.9-0.9l1.8-1.5l1.9-2l2.9-3.7l0.2-1.2l-1.1-1.2l-1.4-1.5l-1.6-0.7l-1.9,1.4l-2.3,2.2l-3.2,2.9l-3.3,3.5
	l-1.6-1.3l-1.8-1.7l-1.8-1.1l-1.5-1.7l-2.1-1.3l-6.4,5.6l-0.9,0.9l1.3,1.1l5.1,4.5l0.3,1.1l8.6,15.5l0.4,2.4l6.4,11.3l3.4,6.4
	l2.4,4.6l0.8,1.6l0.2,2.4l-0.8,1.6l-1.8,0.7l-3.1,0.5l-14.1,0.2l-13.2-0.2l-6.4-0.4l-4.9-1.8l-4.6-3l-3.1-2.8l-1.8-3.6l-0.4-4
	l-0.2-4.1l0.4-6.1l1-3.1l0.1-0.9l1.2-2.5l1-3.2l1-3.4l1.5-3.5l1.3-3.6l1.4-4l1.3-4.1l1.3-2.9l0.8-3l7.6-20.1l3.3-9.1l2.8-6.6
	l0.2-2.1l2-4.9l1-3.7l1.3-3.3l-0.5-2l-0.8-3.1l0.3-2.7l1.1-1.5l1.3-0.9l2-1.6l1.4,0.1l0.5-2.4l1.4-2.9l1-3.1l0.4-0.8l0.5-1l1.4-0.9
	l1.2-1.2l1.7-3l1.1-2l1.2-2.2l1.2-2.2l1.6-2.8l1.1-2.5l1.6-3.2l1.1-1.7l0.2-1.2l0.9-1.1l1,0.1h1.1l0.1-1.1l1.9-0.7l1.1-0.5l0.8-0.1
	v-1.2l0.8-0.8l0.6-2.6l1-1.4l0.5-1.9l1.1-1.8l2.9-5.4l0.2-1.1l0-2l0.6-1l0.7-0.7l1.1-0.3l1.2-0.2l0.7-0.7l0.1-1.2l0.8-1.1l0.2-1
	l1.4-0.2l0.8-1.5l-0.2-1l0.2-1.8l0.5-0.9l0-1v-9.1l0.7-1l0.3-2.1l0-0.1V123l0.8-1.3l0.2-1.5l0.3-1.3l0.3-0.3l-0.1-1.9l-0.5-0.6
	l-0.4-1.2l0.1-1.7l0.8-0.4l1.4-0.3l1.1-1.8l0.7-0.3l0.2-1.2l-0.1-1.6l-0.4-0.9l0.3-1l2.3-0.3l1.1-0.3l0.4,1.4l-1.1,0.3l-0.3,1.8
	l0.5,1l1.8-0.1l0.9-1.1l0.1-1l0.1-1h1.2l0.7,0.9l1.1-0.4l0.8-0.7l0.8-0.9l0.1-0.6l-0.3-1.1l-0.5-1.3l-0.4-1.3l-0.8-0.4l0.3-0.8
	l0.9-0.3l3.5-0.3L93.5,98l-0.8-0.3l-0.8-0.6l0.1-1.3l-0.1-1l0.1-1l0-0.8l1.5-0.1l0.6-1l0.5-0.6L94,90.6l-0.8-0.6l0.4-0.5l0.7,0.1
	l0.6,0.4l1.8-0.2l0.3-1.8l0.7-2.2L96.7,85L95,85.8v-2.1l1-0.5l0-2.3l0.3-1l0.8-0.7l1.7-0.2l0.7-0.8l0.6-0.9l0.4-0.9l0.1-1.1l0.8-0.5
	l0.8-0.9l0.9,0.1l0.9,0.8l1.7-0.6l0.9-0.2l1.2-1l0.9-1.4l0.8-1.2l1.4-0.6l0.9-0.2l0.8,0.2l1.3,0.7l2.1,0.5v-2.5l1.7-0.2l0.9,0.7
	l1.7,0.1l0.6-1.7l0.5-1l1.2-0.3l1.1,0.4l1.7-0.7h1.8l1.5-1l2.5-1.2l2.2-1.8l2.4-2l3.5-2.9l1.7-2.3l2.2-1l2.2-0.3l1-2.1l1.5-0.4
	l-0.1-2.1l1.2-1.6l3.3-2.3l2.8-1.5l2.9-2.3l2.6-2l2.3-0.5l3-0.4l3.8-1.1l2.2-1l4-0.2l1,0.7l-0.1,2L177.1,40.1L177.1,40.1z"/>
</svg>
